<mxfile host="app.diagrams.net" modified="2023-09-01T00:07:50.010Z" agent="Mozilla/5.0 (Windows NT 10.0; Win64; x64) AppleWebKit/537.36 (KHTML, like Gecko) Chrome/116.0.0.0 Safari/537.36" etag="GJv4LRIJLsGbuMOlfVhT" version="21.6.6" type="device">
  <diagram name="Page-1" id="e7e014a7-5840-1c2e-5031-d8a46d1fe8dd">
    <mxGraphModel dx="880" dy="478" grid="1" gridSize="10" guides="1" tooltips="1" connect="1" arrows="1" fold="1" page="1" pageScale="1" pageWidth="1169" pageHeight="826" background="none" math="0" shadow="0">
      <root>
        <mxCell id="0" />
        <mxCell id="1" parent="0" />
        <mxCell id="VTCXVl5inLXvGLABmha3-49" value="&lt;h1&gt;&lt;br&gt;&lt;/h1&gt;" style="rounded=0;whiteSpace=wrap;html=1;align=left;" vertex="1" parent="1">
          <mxGeometry x="110" y="470" width="310" height="190" as="geometry" />
        </mxCell>
        <mxCell id="VTCXVl5inLXvGLABmha3-47" value="" style="edgeStyle=orthogonalEdgeStyle;rounded=0;orthogonalLoop=1;jettySize=auto;html=1;" edge="1" parent="1" source="VTCXVl5inLXvGLABmha3-41">
          <mxGeometry relative="1" as="geometry">
            <mxPoint x="250" y="570" as="targetPoint" />
          </mxGeometry>
        </mxCell>
        <mxCell id="VTCXVl5inLXvGLABmha3-41" value="Usuário" style="shape=umlActor;verticalLabelPosition=bottom;verticalAlign=top;html=1;outlineConnect=0;" vertex="1" parent="1">
          <mxGeometry x="140" y="540" width="30" height="60" as="geometry" />
        </mxCell>
        <mxCell id="VTCXVl5inLXvGLABmha3-48" value="Cadastro" style="ellipse;whiteSpace=wrap;html=1;" vertex="1" parent="1">
          <mxGeometry x="250" y="530" width="120" height="80" as="geometry" />
        </mxCell>
        <mxCell id="VTCXVl5inLXvGLABmha3-50" value="Caso de Uso Cadastro" style="text;html=1;strokeColor=none;fillColor=none;align=center;verticalAlign=middle;whiteSpace=wrap;rounded=0;" vertex="1" parent="1">
          <mxGeometry x="110" y="470" width="160" height="30" as="geometry" />
        </mxCell>
        <mxCell id="VTCXVl5inLXvGLABmha3-51" value="&lt;h1&gt;&lt;br&gt;&lt;/h1&gt;" style="rounded=0;whiteSpace=wrap;html=1;align=left;" vertex="1" parent="1">
          <mxGeometry x="470" y="390" width="310" height="270" as="geometry" />
        </mxCell>
        <mxCell id="VTCXVl5inLXvGLABmha3-52" value="" style="edgeStyle=orthogonalEdgeStyle;rounded=0;orthogonalLoop=1;jettySize=auto;html=1;" edge="1" parent="1" source="VTCXVl5inLXvGLABmha3-53" target="VTCXVl5inLXvGLABmha3-54">
          <mxGeometry relative="1" as="geometry">
            <mxPoint x="610" y="490" as="targetPoint" />
          </mxGeometry>
        </mxCell>
        <mxCell id="VTCXVl5inLXvGLABmha3-53" value="Usuário" style="shape=umlActor;verticalLabelPosition=bottom;verticalAlign=top;html=1;outlineConnect=0;" vertex="1" parent="1">
          <mxGeometry x="500" y="460" width="30" height="60" as="geometry" />
        </mxCell>
        <mxCell id="VTCXVl5inLXvGLABmha3-54" value="Login" style="ellipse;whiteSpace=wrap;html=1;" vertex="1" parent="1">
          <mxGeometry x="600" y="410" width="120" height="80" as="geometry" />
        </mxCell>
        <mxCell id="VTCXVl5inLXvGLABmha3-55" value="Caso de Uso Cadastro de Materiais" style="text;html=1;strokeColor=none;fillColor=none;align=center;verticalAlign=middle;whiteSpace=wrap;rounded=0;" vertex="1" parent="1">
          <mxGeometry x="470" y="390" width="160" height="30" as="geometry" />
        </mxCell>
        <mxCell id="VTCXVl5inLXvGLABmha3-56" value="" style="edgeStyle=orthogonalEdgeStyle;rounded=0;orthogonalLoop=1;jettySize=auto;html=1;exitX=1;exitY=0.5;exitDx=0;exitDy=0;" edge="1" parent="1" target="VTCXVl5inLXvGLABmha3-57" source="VTCXVl5inLXvGLABmha3-54">
          <mxGeometry relative="1" as="geometry">
            <mxPoint x="620" y="500" as="targetPoint" />
            <mxPoint x="540" y="500" as="sourcePoint" />
          </mxGeometry>
        </mxCell>
        <mxCell id="VTCXVl5inLXvGLABmha3-57" value="Cadastro de materiais" style="ellipse;whiteSpace=wrap;html=1;" vertex="1" parent="1">
          <mxGeometry x="600" y="540" width="120" height="80" as="geometry" />
        </mxCell>
        <mxCell id="VTCXVl5inLXvGLABmha3-58" value="&lt;h1&gt;&lt;br&gt;&lt;/h1&gt;" style="rounded=0;whiteSpace=wrap;html=1;align=left;" vertex="1" parent="1">
          <mxGeometry x="110" y="700" width="530" height="270" as="geometry" />
        </mxCell>
        <mxCell id="VTCXVl5inLXvGLABmha3-59" value="" style="edgeStyle=orthogonalEdgeStyle;rounded=0;orthogonalLoop=1;jettySize=auto;html=1;" edge="1" parent="1" source="VTCXVl5inLXvGLABmha3-60" target="VTCXVl5inLXvGLABmha3-61">
          <mxGeometry relative="1" as="geometry">
            <mxPoint x="250" y="800" as="targetPoint" />
          </mxGeometry>
        </mxCell>
        <mxCell id="VTCXVl5inLXvGLABmha3-60" value="Usuário" style="shape=umlActor;verticalLabelPosition=bottom;verticalAlign=top;html=1;outlineConnect=0;" vertex="1" parent="1">
          <mxGeometry x="140" y="770" width="30" height="60" as="geometry" />
        </mxCell>
        <mxCell id="VTCXVl5inLXvGLABmha3-61" value="Login" style="ellipse;whiteSpace=wrap;html=1;" vertex="1" parent="1">
          <mxGeometry x="240" y="720" width="120" height="80" as="geometry" />
        </mxCell>
        <mxCell id="VTCXVl5inLXvGLABmha3-62" value="Caso de Uso Cadastro de Timer" style="text;html=1;strokeColor=none;fillColor=none;align=center;verticalAlign=middle;whiteSpace=wrap;rounded=0;" vertex="1" parent="1">
          <mxGeometry x="110" y="700" width="160" height="30" as="geometry" />
        </mxCell>
        <mxCell id="VTCXVl5inLXvGLABmha3-63" value="" style="edgeStyle=orthogonalEdgeStyle;rounded=0;orthogonalLoop=1;jettySize=auto;html=1;exitX=1;exitY=0.5;exitDx=0;exitDy=0;" edge="1" parent="1" source="VTCXVl5inLXvGLABmha3-61" target="VTCXVl5inLXvGLABmha3-64">
          <mxGeometry relative="1" as="geometry">
            <mxPoint x="260" y="810" as="targetPoint" />
            <mxPoint x="180" y="810" as="sourcePoint" />
          </mxGeometry>
        </mxCell>
        <mxCell id="VTCXVl5inLXvGLABmha3-64" value="Seleciona materiais e valor hora" style="ellipse;whiteSpace=wrap;html=1;" vertex="1" parent="1">
          <mxGeometry x="440" y="720" width="120" height="80" as="geometry" />
        </mxCell>
        <mxCell id="VTCXVl5inLXvGLABmha3-65" value="" style="edgeStyle=orthogonalEdgeStyle;rounded=0;orthogonalLoop=1;jettySize=auto;html=1;exitX=0.5;exitY=1;exitDx=0;exitDy=0;" edge="1" parent="1" target="VTCXVl5inLXvGLABmha3-66" source="VTCXVl5inLXvGLABmha3-64">
          <mxGeometry relative="1" as="geometry">
            <mxPoint x="450" y="810" as="targetPoint" />
            <mxPoint x="550" y="760" as="sourcePoint" />
          </mxGeometry>
        </mxCell>
        <mxCell id="VTCXVl5inLXvGLABmha3-66" value="Inicia o timer" style="ellipse;whiteSpace=wrap;html=1;" vertex="1" parent="1">
          <mxGeometry x="440" y="880" width="120" height="80" as="geometry" />
        </mxCell>
        <mxCell id="VTCXVl5inLXvGLABmha3-67" value="" style="edgeStyle=orthogonalEdgeStyle;rounded=0;orthogonalLoop=1;jettySize=auto;html=1;" edge="1" parent="1" target="VTCXVl5inLXvGLABmha3-68" source="VTCXVl5inLXvGLABmha3-66">
          <mxGeometry relative="1" as="geometry">
            <mxPoint x="240" y="810" as="targetPoint" />
            <mxPoint x="290" y="800" as="sourcePoint" />
          </mxGeometry>
        </mxCell>
        <mxCell id="VTCXVl5inLXvGLABmha3-68" value="Finaliza o timer" style="ellipse;whiteSpace=wrap;html=1;" vertex="1" parent="1">
          <mxGeometry x="240" y="880" width="120" height="80" as="geometry" />
        </mxCell>
      </root>
    </mxGraphModel>
  </diagram>
</mxfile>
